<svg width="29px" height="21px" viewBox="0 0 29 21" version="1.1" xmlns="http://www.w3.org/2000/svg" xmlns:xlink="http://www.w3.org/1999/xlink">
    <!-- Generator: Sketch 46.2 (44496) - http://www.bohemiancoding.com/sketch -->
    <desc>Created with Sketch.</desc>
    <defs></defs>
    <g id="Solution-Design" stroke="none" stroke-width="1" fill="none" fill-rule="evenodd">
        <g id="Jobs_sol" transform="translate(-1315.000000, -27.000000)" fill="#FFFFFF">
            <g id="header">
                <g id="Cart" transform="translate(1251.000000, 13.000000)">
                    <g id="6G" transform="translate(64.000000, 14.000000)">
                        <path d="M10.5899806,16.1270588 L24.8128255,16.1270588 C25.2788255,16.1270588 25.6828255,15.8023529 25.7874922,15.3423529 L28.1968255,4.72852941 C28.2654922,4.43088235 28.1948255,4.11294118 28.0048255,3.86941176 C27.8154922,3.62588235 27.5281589,3.49058824 27.2234922,3.48382353 L7.34866667,3.46352941 L6.708,0.974117647 C6.59266667,0.527647059 6.19533333,0.216470588 5.74066667,0.216470588 L1.024,0.216470588 C0.471333333,0.216470588 0.024,0.669705882 0.024,1.23117647 C0.024,1.79264706 0.471333333,2.24588235 1.024,2.24588235 L4.96866667,2.24588235 L5.604,4.70823529 C5.60733333,4.72852941 5.61133333,4.74205882 5.61533333,4.75558824 L8.35133333,15.3694118 C8.37003813,15.4418205 8.39616022,15.5106707 8.42874407,15.575212 L9.19495555,18.7910294 C9.40957995,19.6918157 10.2144922,20.3274787 11.1404942,20.3274787 L22.3049041,20.3274787 L22.3049041,20.3274787 C22.8765754,20.3274787 23.3400065,19.8640476 23.3400065,19.2923763 C23.3400065,18.7207051 22.8765754,18.257274 22.3049041,18.257274 L11.1145833,18.257274 L10.5899806,16.1270588 Z"></path>
                    </g>
                </g>
            </g>
        </g>
    </g>
</svg>