<?xml version="1.0" encoding="UTF-8"?>
<svg width="184px" height="30px" viewBox="0 0 184 30" version="1.1" xmlns="http://www.w3.org/2000/svg" xmlns:xlink="http://www.w3.org/1999/xlink">
    <!-- Generator: Sketch 48.1 (47250) - http://www.bohemiancoding.com/sketch -->
    <title>logo</title>
    <desc>Created with Sketch.</desc>
    <defs></defs>
    <g id="Home" stroke="none" stroke-width="1" fill="none" fill-rule="evenodd" transform="translate(-78.000000, -19.000000)">
        <g id="header" transform="translate(0.000000, -2.000000)" fill="#0692C1">
            <g id="logo" transform="translate(78.000000, 21.000000)">
                <path d="M18.84,29 L15,29 L11.88,10.52 L11.8,10.52 L8.72,29 L4.88,29 L0.64,0.52 L4.96,0.52 L7,18.6 L7.08,18.6 L10.28,0.52 L13.4,0.52 L16.72,19.04 L16.8,19.04 L18.76,0.52 L23.08,0.52 L18.84,29 Z M31.88,8.72 L31.8,8.72 L29.8,19.04 L33.88,19.04 L31.88,8.72 Z M30.16,0.52 L33.56,0.52 L39.92,29 L35.84,29 L34.64,22.88 L29.08,22.88 L27.88,29 L23.8,29 L30.16,0.52 Z M46,13.24 L48.32,13.24 C49.0400036,13.24 49.6133312,13.140001 50.04,12.94 C50.4666688,12.739999 50.7933322,12.4533352 51.02,12.08 C51.2466678,11.7066648 51.3999996,11.2466694 51.48,10.7 C51.5600004,10.1533306 51.6,9.5200036 51.6,8.8 C51.6,8.0799964 51.5600004,7.4466694 51.48,6.9 C51.3999996,6.3533306 51.2333346,5.8866686 50.98,5.5 C50.7266654,5.1133314 50.3733356,4.8266676 49.92,4.64 C49.4666644,4.4533324 48.8666704,4.36 48.12,4.36 L46,4.36 L46,13.24 Z M41.92,0.52 L48.48,0.52 C53.280024,0.52 55.68,3.3066388 55.68,8.88 C55.68,10.5333416 55.4200026,11.9533274 54.9,13.14 C54.3799974,14.3266726 53.4666732,15.2799964 52.16,16 L56.56,29 L52.24,29 L48.44,16.84 L46,16.84 L46,29 L41.92,29 L41.92,0.52 Z M58.96,0.52 L71.12,0.52 L71.12,4.36 L63.04,4.36 L63.04,12.72 L70.08,12.72 L70.08,16.56 L63.04,16.56 L63.04,24.92 L71.12,24.92 L71.12,29 L58.96,29 L58.96,0.52 Z M103.92,0.52 L108,0.52 L108,12.72 L113.04,12.72 L113.04,0.52 L117.12,0.52 L117.12,29 L113.04,29 L113.04,16.32 L108,16.32 L108,29 L103.92,29 L103.92,0.52 Z M120.72,7.24 C120.72,6.0933276 120.919998,5.0800044 121.32,4.2 C121.720002,3.3199956 122.246663,2.5933362 122.9,2.02 C123.553337,1.4466638 124.286663,1.0133348 125.1,0.72 C125.913337,0.4266652 126.733329,0.28 127.56,0.28 C128.386671,0.28 129.206663,0.4266652 130.02,0.72 C130.833337,1.0133348 131.566663,1.4466638 132.22,2.02 C132.873337,2.5933362 133.399998,3.3199956 133.8,4.2 C134.200002,5.0800044 134.4,6.0933276 134.4,7.24 L134.4,22.28 C134.4,23.4533392 134.200002,24.473329 133.8,25.34 C133.399998,26.206671 132.873337,26.9266638 132.22,27.5 C131.566663,28.0733362 130.833337,28.5066652 130.02,28.8 C129.206663,29.0933348 128.386671,29.24 127.56,29.24 C126.733329,29.24 125.913337,29.0933348 125.1,28.8 C124.286663,28.5066652 123.553337,28.0733362 122.9,27.5 C122.246663,26.9266638 121.720002,26.206671 121.32,25.34 C120.919998,24.473329 120.72,23.4533392 120.72,22.28 L120.72,7.24 Z M124.8,22.28 C124.8,23.2666716 125.073331,23.993331 125.62,24.46 C126.166669,24.926669 126.81333,25.16 127.56,25.16 C128.30667,25.16 128.953331,24.926669 129.5,24.46 C130.046669,23.993331 130.32,23.2666716 130.32,22.28 L130.32,7.24 C130.32,6.2533284 130.046669,5.526669 129.5,5.06 C128.953331,4.593331 128.30667,4.36 127.56,4.36 C126.81333,4.36 126.166669,4.593331 125.62,5.06 C125.073331,5.526669 124.8,6.2533284 124.8,7.24 L124.8,22.28 Z M151.2,22.6 C151.2,23.533338 151.026668,24.399996 150.68,25.2 C150.333332,26.000004 149.860003,26.699997 149.26,27.3 C148.659997,27.900003 147.960004,28.3733316 147.16,28.72 C146.359996,29.0666684 145.506671,29.24 144.6,29.24 C143.693329,29.24 142.840004,29.0666684 142.04,28.72 C141.239996,28.3733316 140.540003,27.900003 139.94,27.3 C139.339997,26.699997 138.866668,26.000004 138.52,25.2 C138.173332,24.399996 138,23.533338 138,22.6 L138,0.52 L142.08,0.52 L142.08,22.2 C142.08,23.2133384 142.319998,23.9599976 142.8,24.44 C143.280002,24.9200024 143.879996,25.16 144.6,25.16 C145.320004,25.16 145.919998,24.9200024 146.4,24.44 C146.880002,23.9599976 147.12,23.2133384 147.12,22.2 L147.12,0.52 L151.2,0.52 L151.2,22.6 Z M168.24,8.72 L164.16,8.72 L164.16,7.8 C164.16,6.866662 163.940002,6.0600034 163.5,5.38 C163.059998,4.6999966 162.320005,4.36 161.28,4.36 C160.719997,4.36 160.260002,4.4666656 159.9,4.68 C159.539998,4.8933344 159.260001,5.166665 159.06,5.5 C158.859999,5.833335 158.72,6.2199978 158.64,6.66 C158.56,7.1000022 158.52,7.5599976 158.52,8.04 C158.52,8.6000028 158.54,9.0733314 158.58,9.46 C158.62,9.8466686 158.719999,10.1799986 158.88,10.46 C159.040001,10.7400014 159.273332,10.9866656 159.58,11.2 C159.886668,11.4133344 160.306664,11.6266656 160.84,11.84 L163.96,13.08 C164.866671,13.4266684 165.599997,13.833331 166.16,14.3 C166.720003,14.766669 167.153332,15.3133302 167.46,15.94 C167.766668,16.5666698 167.973333,17.2866626 168.08,18.1 C168.186667,18.9133374 168.24,19.8399948 168.24,20.88 C168.24,22.080006 168.120001,23.1933282 167.88,24.22 C167.639999,25.2466718 167.246669,26.126663 166.7,26.86 C166.153331,27.593337 165.426671,28.1733312 164.52,28.6 C163.613329,29.0266688 162.506673,29.24 161.2,29.24 C160.213328,29.24 159.293338,29.0666684 158.44,28.72 C157.586662,28.3733316 156.853336,27.900003 156.24,27.3 C155.626664,26.699997 155.140002,25.9866708 154.78,25.16 C154.419998,24.3333292 154.24,23.4400048 154.24,22.48 L154.24,20.96 L158.32,20.96 L158.32,22.24 C158.32,22.9866704 158.539998,23.659997 158.98,24.26 C159.420002,24.860003 160.159995,25.16 161.2,25.16 C161.893337,25.16 162.433331,25.060001 162.82,24.86 C163.206669,24.659999 163.499999,24.3800018 163.7,24.02 C163.900001,23.6599982 164.026666,23.213336 164.08,22.68 C164.133334,22.146664 164.16,21.5600032 164.16,20.92 C164.16,20.1733296 164.133334,19.5600024 164.08,19.08 C164.026666,18.5999976 163.913334,18.2133348 163.74,17.92 C163.566666,17.6266652 163.326668,17.3866676 163.02,17.2 C162.713332,17.0133324 162.306669,16.8133344 161.8,16.6 L158.88,15.4 C157.119991,14.6799964 155.940003,13.7266726 155.34,12.54 C154.739997,11.3533274 154.44,9.8666756 154.44,8.08 C154.44,7.013328 154.586665,6.0000048 154.88,5.04 C155.173335,4.0799952 155.606664,3.2533368 156.18,2.56 C156.753336,1.8666632 157.479996,1.3133354 158.36,0.9 C159.240004,0.4866646 160.266661,0.28 161.44,0.28 C162.453338,0.28 163.379996,0.4666648 164.22,0.84 C165.060004,1.2133352 165.779997,1.7066636 166.38,2.32 C166.980003,2.9333364 167.439998,3.6199962 167.76,4.38 C168.080002,5.1400038 168.24,5.919996 168.24,6.72 L168.24,8.72 Z M171.28,0.52 L183.44,0.52 L183.44,4.36 L175.36,4.36 L175.36,12.72 L182.4,12.72 L182.4,16.56 L175.36,16.56 L175.36,24.92 L183.44,24.92 L183.44,29 L171.28,29 L171.28,0.52 Z" id="WARE-HOUSE"></path>
                <path d="M77,8.28571429 L87.5,0 L98,8.28571429 L98,29 L77,29 L77,8.28571429 Z" id="Combined-Shape"></path>
            </g>
        </g>
    </g>
</svg>