<?xml version="1.0" encoding="utf-8"?>
<!-- Generator: Adobe Illustrator 22.0.1, SVG Export Plug-In . SVG Version: 6.00 Build 0)  -->
<svg version="1.1" id="Layer_1" xmlns="http://www.w3.org/2000/svg" xmlns:xlink="http://www.w3.org/1999/xlink" x="0px" y="0px"
	 viewBox="0 0 184 30" style="enable-background:new 0 0 184 30;" xml:space="preserve">
<style type="text/css">
	.st0{fill:#231F20;}
</style>
<title>logo</title>
<desc>Created with Sketch.</desc>
<g id="Home" transform="translate(-78.000000, -19.000000)">
	<g id="header" transform="translate(0.000000, -2.000000)">
		<g id="logo" transform="translate(78.000000, 21.000000)">
			<path id="WARE-HOUSE" class="st0" d="M18.8,29H15l-3.1-18.5h-0.1L8.7,29H4.9L0.6,0.5H5l2,18.1h0.1l3.2-18.1h3.1L16.7,19h0.1
				l2-18.5h4.3L18.8,29z M31.9,8.7L31.9,8.7L29.8,19h4.1L31.9,8.7z M30.2,0.5h3.4L39.9,29h-4.1l-1.2-6.1h-5.6L27.9,29h-4.1L30.2,0.5
				z M46,13.2h2.3c0.7,0,1.3-0.1,1.7-0.3c0.4-0.2,0.8-0.5,1-0.9c0.2-0.4,0.4-0.8,0.5-1.4c0.1-0.5,0.1-1.2,0.1-1.9
				c0-0.7,0-1.4-0.1-1.9s-0.2-1-0.5-1.4s-0.6-0.7-1.1-0.9c-0.5-0.2-1.1-0.3-1.8-0.3H46V13.2z M41.9,0.5h6.6c4.8,0,7.2,2.8,7.2,8.4
				c0,1.7-0.3,3.1-0.8,4.3c-0.5,1.2-1.4,2.1-2.7,2.9l4.4,13h-4.3l-3.8-12.2H46V29h-4.1V0.5z M59,0.5h12.2v3.8H63v8.4h7v3.8h-7v8.4
				h8.1V29H59V0.5z M103.9,0.5h4.1v12.2h5V0.5h4.1V29H113V16.3h-5V29h-4.1V0.5z M120.7,7.2c0-1.1,0.2-2.2,0.6-3s0.9-1.6,1.6-2.2
				s1.4-1,2.2-1.3s1.6-0.4,2.5-0.4c0.8,0,1.6,0.1,2.5,0.4s1.5,0.7,2.2,1.3s1.2,1.3,1.6,2.2c0.4,0.9,0.6,1.9,0.6,3v15
				c0,1.2-0.2,2.2-0.6,3.1c-0.4,0.9-0.9,1.6-1.6,2.2s-1.4,1-2.2,1.3s-1.6,0.4-2.5,0.4c-0.8,0-1.6-0.1-2.5-0.4s-1.5-0.7-2.2-1.3
				s-1.2-1.3-1.6-2.2s-0.6-1.9-0.6-3.1V7.2z M124.8,22.3c0,1,0.3,1.7,0.8,2.2c0.5,0.5,1.2,0.7,1.9,0.7c0.7,0,1.4-0.2,1.9-0.7
				c0.5-0.5,0.8-1.2,0.8-2.2v-15c0-1-0.3-1.7-0.8-2.2s-1.2-0.7-1.9-0.7c-0.7,0-1.4,0.2-1.9,0.7s-0.8,1.2-0.8,2.2V22.3z M151.2,22.6
				c0,0.9-0.2,1.8-0.5,2.6c-0.3,0.8-0.8,1.5-1.4,2.1c-0.6,0.6-1.3,1.1-2.1,1.4s-1.7,0.5-2.6,0.5c-0.9,0-1.8-0.2-2.6-0.5
				c-0.8-0.3-1.5-0.8-2.1-1.4c-0.6-0.6-1.1-1.3-1.4-2.1c-0.3-0.8-0.5-1.7-0.5-2.6V0.5h4.1v21.7c0,1,0.2,1.8,0.7,2.2
				c0.5,0.5,1.1,0.7,1.8,0.7c0.7,0,1.3-0.2,1.8-0.7c0.5-0.5,0.7-1.2,0.7-2.2V0.5h4.1V22.6z M168.2,8.7h-4.1V7.8
				c0-0.9-0.2-1.7-0.7-2.4s-1.2-1-2.2-1c-0.6,0-1,0.1-1.4,0.3c-0.4,0.2-0.6,0.5-0.8,0.8s-0.3,0.7-0.4,1.2c-0.1,0.4-0.1,0.9-0.1,1.4
				c0,0.6,0,1,0.1,1.4c0,0.4,0.1,0.7,0.3,1s0.4,0.5,0.7,0.7c0.3,0.2,0.7,0.4,1.3,0.6l3.1,1.2c0.9,0.3,1.6,0.8,2.2,1.2
				c0.6,0.5,1,1,1.3,1.6c0.3,0.6,0.5,1.3,0.6,2.2c0.1,0.8,0.2,1.7,0.2,2.8c0,1.2-0.1,2.3-0.4,3.3c-0.2,1-0.6,1.9-1.2,2.6
				c-0.5,0.7-1.3,1.3-2.2,1.7c-0.9,0.4-2,0.6-3.3,0.6c-1,0-1.9-0.2-2.8-0.5c-0.9-0.3-1.6-0.8-2.2-1.4c-0.6-0.6-1.1-1.3-1.5-2.1
				s-0.5-1.7-0.5-2.7V21h4.1v1.3c0,0.7,0.2,1.4,0.7,2s1.2,0.9,2.2,0.9c0.7,0,1.2-0.1,1.6-0.3c0.4-0.2,0.7-0.5,0.9-0.8
				c0.2-0.4,0.3-0.8,0.4-1.3s0.1-1.1,0.1-1.8c0-0.7,0-1.4-0.1-1.8c-0.1-0.5-0.2-0.9-0.3-1.2c-0.2-0.3-0.4-0.5-0.7-0.7
				c-0.3-0.2-0.7-0.4-1.2-0.6l-2.9-1.2c-1.8-0.7-2.9-1.7-3.5-2.9s-0.9-2.7-0.9-4.5c0-1.1,0.1-2.1,0.4-3s0.7-1.8,1.3-2.5
				c0.6-0.7,1.3-1.2,2.2-1.7s1.9-0.6,3.1-0.6c1,0,1.9,0.2,2.8,0.6c0.8,0.4,1.6,0.9,2.2,1.5c0.6,0.6,1.1,1.3,1.4,2.1
				c0.3,0.8,0.5,1.5,0.5,2.3V8.7z M171.3,0.5h12.2v3.8h-8.1v8.4h7v3.8h-7v8.4h8.1V29h-12.2V0.5z"/>
			<path id="Combined-Shape" class="st0" d="M77,8.3L87.5,0L98,8.3V29H77V8.3z"/>
		</g>
	</g>
</g>
</svg>
